<svg width="500" height="250" viewBox="0 0 500 250" fill="none" xmlns="http://www.w3.org/2000/svg">
<path d="M117.087 91H121.533C121.767 91 121.965 91.198 121.965 91.432V136.088C121.963 136.202 121.917 136.311 121.837 136.392C121.756 136.473 121.647 136.519 121.533 136.52H117.087C116.973 136.519 116.864 136.473 116.783 136.392C116.703 136.311 116.657 136.202 116.655 136.088V91.432C116.655 91.198 116.853 91 117.087 91ZM147.713 127.743V128.875C147.713 129.378 147.631 130.044 147.445 130.906C147.294 131.724 146.862 132.588 146.126 133.405C145.425 134.223 144.375 134.969 142.928 135.588C141.48 136.17 139.543 136.486 137.046 136.486C134.547 136.486 132.598 136.17 131.163 135.586C129.715 135.003 128.712 134.269 127.964 133.405C127.263 132.587 126.797 131.724 126.645 130.872C126.494 130.021 126.377 129.389 126.377 128.887V103.431C126.377 103.197 126.576 102.999 126.809 102.999H131.256C131.49 102.999 131.688 103.196 131.688 103.431V127.241C131.688 128.024 131.804 128.607 131.922 129.041C132.038 129.507 132.271 129.937 132.587 130.323C132.937 130.755 133.439 131.06 134.151 131.338C134.815 131.606 135.75 131.77 136.916 131.77C138.119 131.77 139.099 131.619 139.8 131.338C140.5 131.07 141.048 130.755 141.398 130.369C141.756 130.031 142.012 129.598 142.135 129.121C142.251 128.654 142.403 128.303 142.403 127.206V103.43C142.403 103.197 142.601 102.999 142.835 102.999H147.281C147.515 102.999 147.713 103.196 147.713 103.431V127.743ZM162.899 103.045H165.898C166.166 103.045 166.366 103.314 166.284 103.548L165.268 107.445C165.234 107.645 165.036 107.761 164.883 107.761H162.782C161.65 107.761 160.752 107.913 160.051 108.228C159.385 108.543 158.803 108.846 158.453 109.278C158.102 109.71 157.868 110.096 157.752 110.527C157.634 110.995 157.6 111.379 157.6 111.777V136.088C157.598 136.202 157.552 136.311 157.472 136.392C157.391 136.473 157.282 136.519 157.168 136.52H152.686C152.572 136.519 152.463 136.473 152.382 136.392C152.302 136.311 152.256 136.202 152.254 136.088V110.679C152.254 110.213 152.336 109.547 152.522 108.696C152.675 107.843 153.107 107.013 153.841 106.163C154.542 105.344 155.592 104.598 157.04 103.98C158.428 103.35 160.413 103.047 162.899 103.047V103.045ZM101.609 103.045C105.228 103.045 107.923 103.746 109.64 105.194C111.32 106.64 112.173 108.426 112.173 110.574V128.875C112.173 129.612 112.021 130.44 111.741 131.327C111.473 132.227 110.959 133.043 110.177 133.778C109.394 134.514 108.309 135.144 106.943 135.645C105.578 136.147 103.791 136.381 101.609 136.381C99.3913 136.381 97.6404 136.113 96.2757 135.645C94.9093 135.179 93.8244 134.514 93.0422 133.779C92.26 133.043 91.7118 132.213 91.4778 131.327C91.2095 130.428 91.0458 129.612 91.0458 128.875V125.958C91.0458 124.393 91.4778 122.958 92.2485 121.674C93.041 120.393 94.2541 119.427 95.68 118.943C96.4147 118.674 97.2444 118.442 98.2131 118.092C99.1458 117.74 100.08 117.471 100.979 117.121C101.877 116.807 102.613 116.539 103.314 116.305C103.978 116.036 104.399 115.92 104.562 115.838C104.714 115.757 104.947 115.64 105.181 115.488C105.449 115.336 105.683 115.104 105.963 114.87C106.231 114.554 106.429 114.251 106.581 113.901C106.779 113.515 106.85 113.083 106.85 112.582V111.415C106.85 110.983 106.768 110.597 106.581 110.131C106.429 109.664 106.115 109.313 105.729 108.928C105.344 108.543 104.76 108.264 104.096 108.028C103.43 107.796 102.577 107.679 101.527 107.679C99.4617 107.679 98.0953 108.111 97.3131 108.964C96.6945 109.699 96.2986 110.597 96.2282 111.648C96.2282 111.882 96.0302 112.034 95.7962 112.034H91.4304C91.3166 112.032 91.2081 111.985 91.1278 111.905C91.0475 111.824 91.0017 111.716 91 111.602V110.515C91 109.465 91.198 108.486 91.5826 107.598C91.9687 106.698 92.5987 105.881 93.4971 105.181C94.4797 104.424 95.6086 103.88 96.8124 103.582C98.1427 103.279 99.7415 103.045 101.609 103.045ZM106.955 119.479C106.873 119.911 106.64 120.18 106.336 120.414C106.046 120.608 105.733 120.765 105.403 120.88C104.783 121.114 104.071 121.348 103.371 121.58C102.701 121.834 102.024 122.068 101.34 122.281C100.605 122.549 99.8576 122.783 99.2391 123.017C98.7297 123.252 98.2451 123.537 97.7925 123.868C97.4064 124.218 97.0922 124.604 96.7764 125.153C96.4622 125.701 96.31 126.319 96.31 127.101C96.31 128.666 96.6946 129.834 97.4424 130.603C98.1771 131.34 99.5893 131.77 101.609 131.77C103.675 131.77 105.076 131.338 105.858 130.569C106.593 129.751 106.991 128.618 106.991 127.136L106.955 119.479ZM178.878 103.045C182.496 103.045 185.192 103.746 186.909 105.194C188.589 106.64 189.442 108.426 189.442 110.574V128.875C189.442 129.612 189.29 130.44 189.01 131.327C188.742 132.227 188.228 133.043 187.446 133.778C186.663 134.514 185.579 135.144 184.212 135.645C182.846 136.147 181.061 136.381 178.878 136.381C176.66 136.381 174.898 136.113 173.543 135.645C172.178 135.179 171.093 134.514 170.311 133.779C169.529 133.043 168.992 132.213 168.747 131.327C168.479 130.428 168.315 129.612 168.315 128.875V125.958C168.315 124.393 168.747 122.958 169.518 121.674C170.31 120.393 171.523 119.427 172.949 118.943C173.684 118.674 174.513 118.442 175.482 118.092C176.415 117.74 177.349 117.471 178.248 117.121C179.146 116.807 179.882 116.539 180.583 116.305C181.247 116.036 181.668 115.92 181.831 115.838C181.983 115.757 182.216 115.64 182.45 115.488C182.718 115.336 182.952 115.104 183.232 114.87C183.5 114.554 183.698 114.251 183.851 113.901C184.049 113.515 184.119 113.083 184.119 112.582V111.415C184.119 110.983 184.037 110.597 183.851 110.131C183.698 109.664 183.384 109.313 182.998 108.928C182.566 108.543 182.029 108.264 181.365 108.028C180.699 107.796 179.846 107.679 178.796 107.679C176.731 107.679 175.364 108.111 174.582 108.964C173.964 109.699 173.568 110.597 173.497 111.648C173.497 111.882 173.299 112.034 173.065 112.034H168.583C168.469 112.032 168.36 111.986 168.28 111.905C168.199 111.825 168.153 111.716 168.151 111.602V110.515C168.151 109.465 168.349 108.486 168.735 107.598C169.12 106.698 169.75 105.881 170.65 105.181C171.632 104.424 172.76 103.88 173.964 103.582C175.578 103.23 177.225 103.051 178.878 103.045ZM184.178 119.479C184.096 119.911 183.862 120.18 183.559 120.414C183.269 120.608 182.955 120.765 182.625 120.88C182.006 121.114 181.306 121.348 180.594 121.58C179.925 121.834 179.247 122.068 178.563 122.281C177.827 122.549 177.081 122.783 176.462 123.017C175.952 123.252 175.467 123.537 175.014 123.868C174.63 124.218 174.314 124.604 174 125.153C173.684 125.655 173.532 126.319 173.532 127.101C173.532 128.666 173.918 129.834 174.664 130.603C175.4 131.34 176.813 131.77 178.832 131.77C180.897 131.77 182.298 131.338 183.08 130.569C183.815 129.751 184.212 128.618 184.212 127.136L184.178 119.479ZM123.843 143.256C123.843 143.046 124.019 142.847 124.253 142.847H126.809C127.02 142.847 127.218 143.046 127.218 143.256V154.718H132.33C132.564 154.718 132.739 154.915 132.739 155.127V157.461C132.739 157.67 132.564 157.87 132.33 157.87H124.264C124.156 157.869 124.053 157.825 123.977 157.749C123.901 157.672 123.857 157.569 123.857 157.461V143.257H123.843V143.256ZM133.59 157.309L140.313 142.871C140.384 142.742 140.523 142.637 140.675 142.637H140.885C141.037 142.637 141.189 142.742 141.248 142.871L147.97 157.309C148.099 157.589 147.924 157.87 147.608 157.87H145.227C144.841 157.87 144.666 157.741 144.48 157.332L143.711 155.64H137.874L137.103 157.356C137.045 157.511 136.939 157.644 136.801 157.736C136.663 157.828 136.5 157.874 136.334 157.868H133.976C133.626 157.868 133.462 157.59 133.59 157.309ZM142.403 152.722L140.768 149.186H140.745L139.134 152.72H142.403V152.722ZM150.888 145.998H147.818C147.71 145.997 147.607 145.953 147.531 145.877C147.454 145.8 147.411 145.697 147.41 145.589V143.256C147.41 143.046 147.585 142.847 147.818 142.847H157.343C157.577 142.847 157.752 143.046 157.752 143.256V145.591C157.752 145.8 157.577 146 157.343 146H154.273V157.461C154.273 157.67 154.075 157.87 153.864 157.87H151.285C151.178 157.865 151.077 157.82 151.002 157.744C150.926 157.669 150.881 157.568 150.876 157.461V145.998H150.888ZM157.191 157.309L163.915 142.871C163.985 142.742 164.124 142.637 164.276 142.637H164.486C164.638 142.637 164.79 142.742 164.847 142.871L171.571 157.309C171.699 157.589 171.524 157.87 171.21 157.87H168.829C168.443 157.87 168.267 157.741 168.081 157.332L167.31 155.64H161.475L160.704 157.356C160.646 157.512 160.54 157.645 160.402 157.737C160.263 157.829 160.099 157.875 159.933 157.868H157.577C157.238 157.868 157.063 157.59 157.191 157.309ZM166.016 152.722L164.381 149.186H164.358L162.746 152.72H166.016V152.722ZM174.816 142.976C174.83 142.883 174.876 142.798 174.947 142.736C175.017 142.674 175.107 142.639 175.201 142.637H175.539C175.644 142.637 175.844 142.719 175.901 142.847L180.885 152.115H180.933L185.916 142.847C185.956 142.787 186.01 142.736 186.072 142.7C186.135 142.664 186.205 142.642 186.277 142.637H186.616C186.791 142.637 186.978 142.789 187.002 142.976L189.429 157.402C189.476 157.682 189.278 157.868 189.021 157.868H186.488C186.29 157.868 186.102 157.695 186.079 157.531L185.111 150.901H185.065L181.458 157.857C181.419 157.92 181.365 157.974 181.303 158.014C181.24 158.055 181.169 158.081 181.095 158.091H180.71C180.635 158.085 180.563 158.06 180.5 158.02C180.437 157.979 180.385 157.923 180.349 157.857L176.719 150.902H176.672L175.726 157.53C175.708 157.625 175.658 157.711 175.584 157.773C175.509 157.836 175.415 157.87 175.319 157.87H172.785C172.529 157.87 172.331 157.67 172.376 157.402L174.816 142.976Z" fill="#343233"/>
<path d="M303.942 128.83H317.095L310.15 117.615L297.393 137.878H291.568L307.105 113.576C307.445 113.084 307.9 112.684 308.431 112.409C308.962 112.134 309.552 111.994 310.15 112C311.364 112 312.485 112.573 313.151 113.542L328.733 137.889H322.92L320.178 133.36H306.848L303.942 128.83ZM364.286 133.348V112.234H359.349V135.425C359.349 136.055 359.617 136.673 360.084 137.128C360.55 137.619 361.205 137.887 361.882 137.887H384.349L387.28 133.358H364.286V133.348ZM282.721 129.568C283.86 129.568 284.987 129.344 286.039 128.908C287.091 128.472 288.046 127.833 288.85 127.028C289.655 126.222 290.293 125.266 290.727 124.214C291.162 123.162 291.384 122.034 291.383 120.895C291.383 116.109 287.519 112.223 282.721 112.223H261.151V137.865H266.076V116.764H282.394C282.938 116.762 283.476 116.868 283.979 117.075C284.481 117.282 284.938 117.586 285.323 117.97C285.708 118.354 286.014 118.81 286.222 119.312C286.431 119.814 286.539 120.352 286.539 120.895C286.54 121.997 286.104 123.054 285.327 123.835C284.551 124.617 283.496 125.058 282.394 125.063L268.493 125.052L283.224 137.879H290.378L280.493 129.58H282.721V129.568ZM230.827 137.876H245.733C247.416 137.877 249.082 137.546 250.637 136.902C252.192 136.259 253.604 135.314 254.794 134.124C255.983 132.934 256.926 131.52 257.568 129.965C258.211 128.41 258.54 126.743 258.538 125.06C258.538 117.975 252.83 112.231 245.733 112.231H230.827C223.742 112.231 218 117.975 218 125.06C218 132.145 223.742 137.876 230.827 137.876ZM245.383 133.36H231.143C228.944 133.357 226.836 132.481 225.282 130.925C223.728 129.369 222.855 127.259 222.855 125.06C222.853 123.97 223.066 122.891 223.481 121.884C223.897 120.877 224.507 119.962 225.277 119.191C226.047 118.42 226.962 117.808 227.968 117.391C228.975 116.974 230.054 116.76 231.143 116.76H245.383C246.473 116.758 247.554 116.971 248.562 117.387C249.57 117.804 250.485 118.415 251.256 119.186C252.027 119.957 252.638 120.873 253.055 121.881C253.471 122.889 253.683 123.97 253.681 125.06C253.682 126.15 253.469 127.23 253.052 128.237C252.636 129.245 252.025 130.16 251.254 130.931C250.483 131.702 249.568 132.313 248.56 132.729C247.553 133.146 246.473 133.361 245.383 133.36ZM339.004 137.876H354.224L357.107 133.36H339.353C338.262 133.36 337.182 133.146 336.174 132.729C335.167 132.313 334.251 131.701 333.479 130.931C332.707 130.16 332.095 129.245 331.677 128.238C331.259 127.23 331.044 126.151 331.043 125.06C331.042 123.969 331.256 122.888 331.674 121.88C332.091 120.871 332.703 119.955 333.475 119.184C334.248 118.413 335.164 117.802 336.173 117.386C337.182 116.97 338.263 116.758 339.354 116.76H353.803L356.723 112.233H339.017C331.932 112.233 326.177 117.976 326.177 125.06C326.165 132.145 331.92 137.876 339.004 137.876ZM399.303 133.36C397.496 133.361 395.738 132.772 394.297 131.683C392.856 130.594 391.81 129.063 391.319 127.325H412.387L415.293 122.808H391.319C391.808 121.069 392.853 119.537 394.295 118.447C395.736 117.357 397.495 116.768 399.303 116.772H413.763L416.658 112.244H398.975C391.901 112.244 386.159 117.988 386.159 125.071C386.159 126.755 386.49 128.421 387.134 129.976C387.778 131.532 388.722 132.945 389.912 134.135C391.102 135.325 392.515 136.269 394.07 136.913C395.625 137.557 397.292 137.888 398.975 137.887H414.195L417.09 133.371H399.303" fill="#343233"/>
</svg>
