<svg width="209" height="209" viewBox="0 0 209 209" fill="none" xmlns="http://www.w3.org/2000/svg">
<path d="M71.56 147.54C59.1667 147.54 49.7067 144.093 43.18 137.2C36.7267 130.307 33.5 120.517 33.5 107.83C33.5 101.523 34.49 95.9133 36.47 91C38.45 86.0133 41.1633 81.8333 44.61 78.46C48.0567 75.0133 52.1633 72.41 56.93 70.65C61.6967 68.89 66.8667 68.01 72.44 68.01C75.6667 68.01 78.6 68.2667 81.24 68.78C83.88 69.22 86.19 69.77 88.17 70.43C90.15 71.0167 91.8 71.64 93.12 72.3C94.44 72.96 95.3933 73.4733 95.98 73.84L91.03 87.7C88.6833 86.4533 85.9333 85.39 82.78 84.51C79.7 83.63 76.18 83.19 72.22 83.19C69.58 83.19 66.9767 83.63 64.41 84.51C61.9167 85.39 59.68 86.82 57.7 88.8C55.7933 90.7067 54.2533 93.2 53.08 96.28C51.9067 99.36 51.32 103.1 51.32 107.5C51.32 111.02 51.6867 114.32 52.42 117.4C53.2267 120.407 54.4733 123.01 56.16 125.21C57.92 127.41 60.1933 129.17 62.98 130.49C65.7667 131.737 69.14 132.36 73.1 132.36C75.5933 132.36 77.83 132.213 79.81 131.92C81.79 131.627 83.55 131.297 85.09 130.93C86.63 130.49 87.9867 130.013 89.16 129.5C90.3333 128.987 91.3967 128.51 92.35 128.07L97.08 141.82C94.66 143.287 91.25 144.607 86.85 145.78C82.45 146.953 77.3533 147.54 71.56 147.54ZM132.937 146C129.93 139.62 126.96 132.983 124.027 126.09C121.093 119.197 118.307 112.377 115.667 105.63C113.027 98.8833 110.57 92.43 108.297 86.27C106.097 80.11 104.19 74.61 102.577 69.77H121.497C122.963 74.17 124.54 78.9367 126.227 84.07C127.987 89.13 129.747 94.19 131.507 99.25C133.34 104.31 135.1 109.15 136.787 113.77C138.473 118.39 140.05 122.387 141.517 125.76C142.91 122.387 144.45 118.39 146.137 113.77C147.897 109.15 149.657 104.31 151.417 99.25C153.25 94.19 155.01 89.13 156.697 84.07C158.457 78.9367 160.07 74.17 161.537 69.77H179.797C178.11 74.61 176.167 80.11 173.967 86.27C171.767 92.43 169.347 98.8833 166.707 105.63C164.067 112.377 161.28 119.197 158.347 126.09C155.413 132.983 152.443 139.62 149.437 146H132.937Z" fill="#E7E5E5"/>
</svg>
