<svg width="200" height="200" viewBox="0 0 200 200" fill="none" xmlns="http://www.w3.org/2000/svg">
<path d="M86.3795 140.5C79.614 140.5 74.1295 135.015 74.1295 128.25C74.1295 121.484 79.614 116 86.3795 116H98.6295V128.25C98.6295 135.015 93.145 140.5 86.3795 140.5ZM114.25 84.5H102V60H114.25C121.015 60 126.5 65.4845 126.5 72.25C126.5 79.0155 121.015 84.5 114.25 84.5ZM86.25 84.5H98.5V60H86.25C79.4845 60 74 65.4845 74 72.25C74 79.0155 79.4845 84.5 86.25 84.5ZM86.25 112.5H98.5V88H86.25C79.4845 88 74 93.4845 74 100.25C74 107.015 79.4845 112.5 86.25 112.5ZM112.5 88C109.715 88 107.045 89.1062 105.075 91.0754C103.106 93.0445 102 95.7152 102 98.5C102 101.285 103.106 103.955 105.075 105.925C107.045 107.894 109.715 109 112.5 109C115.285 109 117.955 107.894 119.925 105.925C121.894 103.955 123 101.285 123 98.5C123 95.7152 121.894 93.0445 119.925 91.0754C117.955 89.1062 115.285 88 112.5 88Z" fill="#E7E5E5"/>
</svg>
