<svg width="200" height="200" viewBox="0 0 200 200" fill="none" xmlns="http://www.w3.org/2000/svg">
<path d="M138.837 95.3549L105.605 62.1226C104.19 60.7075 102.335 60 100.48 60C98.625 60 96.7699 60.7075 95.3549 62.1226L88.783 68.6944L96.9213 76.8326C99.6194 75.2451 103.139 75.5848 105.457 77.901C107.773 80.2171 108.113 83.7371 106.526 86.437L114.521 94.4326C117.219 92.8451 120.739 93.1848 123.057 95.501C125.806 98.2501 125.806 102.708 123.057 105.457C120.308 108.206 115.85 108.206 113.101 105.457C110.785 103.141 110.445 99.6211 112.033 96.9213L104.037 88.9256C103.467 89.26 102.865 89.5064 102.24 89.6666V111.288C105.271 112.073 107.52 114.803 107.52 118.08C107.52 121.968 104.368 125.12 100.48 125.12C96.5922 125.12 93.44 121.968 93.44 118.08C93.44 114.803 95.6893 112.073 98.72 111.288V89.6683C97.5426 89.3638 96.4232 88.7795 95.5027 87.859C93.1866 85.5429 92.8469 82.0229 94.4344 79.323L86.2944 71.183L62.1226 95.3549C59.2925 98.185 59.2925 102.773 62.1226 105.603L95.3549 138.836C96.7699 140.252 98.625 140.96 100.48 140.96C102.335 140.96 104.19 140.252 105.605 138.837L138.837 105.605C141.668 102.775 141.668 98.185 138.837 95.3549Z" fill="#E7E5E5"/>
</svg>
