<svg width="200" height="200" viewBox="0 0 200 200" fill="none" xmlns="http://www.w3.org/2000/svg">
<path d="M100 61C77.91 61 60 78.91 60 101C60 119.743 72.9067 135.427 90.3067 139.767C90.12 139.227 90 138.6 90 137.823V130.987C88.3767 130.987 85.6567 130.987 84.9733 130.987C82.2367 130.987 79.8033 129.81 78.6233 127.623C77.3133 125.193 77.0867 121.477 73.84 119.203C72.8767 118.447 73.61 117.583 74.72 117.7C76.77 118.28 78.47 119.687 80.07 121.773C81.6633 123.863 82.4133 124.337 85.39 124.337C86.8333 124.337 88.9933 124.253 91.0267 123.933C92.12 121.157 94.01 118.6 96.32 117.393C83 116.023 76.6433 109.397 76.6433 100.4C76.6433 96.5267 78.2933 92.78 81.0967 89.6233C80.1767 86.49 79.02 80.1 81.45 77.6667C87.4433 77.6667 91.0667 81.5533 91.9367 82.6033C94.9233 81.58 98.2033 81 101.65 81C105.103 81 108.397 81.58 111.39 82.61C112.25 81.5667 115.877 77.6667 121.883 77.6667C124.323 80.1033 123.153 86.52 122.223 89.6467C125.01 92.7967 126.65 96.5333 126.65 100.4C126.65 109.39 120.303 116.013 107.003 117.39C110.663 119.3 113.333 124.667 113.333 128.71V137.823C113.333 138.17 113.257 138.42 113.217 138.717C128.803 133.253 140 118.453 140 101C140 78.91 122.09 61 100 61Z" fill="#E7E5E5"/>
</svg>
