<svg width="209" height="209" viewBox="0 0 209 209" fill="none" xmlns="http://www.w3.org/2000/svg">
<path d="M133.316 169.072C138.097 169.072 137.414 174.877 137.414 174.877H75.2646C75.2646 174.877 74.5816 169.072 79.3623 169.072C83.8015 169.072 84.8259 167.023 84.8259 164.974L84.4845 147.9C60.2395 153.364 55.1173 138.338 55.1173 138.338C51.0196 128.094 45.556 125.704 45.556 125.704C37.3605 120.24 45.8974 120.24 45.8974 120.24C54.7759 120.923 59.5566 129.119 59.5566 129.119C67.0691 142.436 79.7038 138.68 84.8259 136.631C85.5089 130.826 87.8992 127.07 90.2896 124.679C70.8253 122.63 50.6781 115.118 50.6781 81.6531C50.6781 72.0917 54.0929 64.2377 59.5566 58.0911C58.5321 56.0423 55.8003 47.1638 60.581 35.2121C60.581 35.2121 67.752 32.8217 84.4845 44.0905C98.8265 39.9928 113.852 39.9928 128.194 44.0905C144.926 32.8217 152.097 35.2121 152.097 35.2121C156.878 47.1638 154.146 56.0423 153.122 58.0911C158.585 64.2377 162 72.0917 162 81.6531C162 115.118 141.511 122.63 122.047 124.679C125.462 127.411 128.194 132.875 128.194 141.07L127.852 164.974C127.852 167.023 128.877 169.072 133.316 169.072Z" fill="#E7E5E5" fill-opacity="0.99"/>
</svg>
