<svg width="200" height="200" viewBox="0 0 200 200" fill="none" xmlns="http://www.w3.org/2000/svg">
<path d="M135.824 60.5706C135.494 60.2063 135.02 60 134.525 60H65.7613C65.2663 60 64.792 60.2063 64.462 60.5706C64.1251 60.935 63.9601 61.4231 64.0082 61.9181L70.2026 131.308C70.2645 132.036 70.7732 132.641 71.4745 132.847L99.6551 140.891C99.8063 140.939 99.9713 140.96 100.136 140.96C100.301 140.96 100.459 140.939 100.618 140.891L128.819 132.847C129.52 132.641 130.022 132.036 130.091 131.308L136.278 61.9181C136.326 61.4231 136.161 60.935 135.824 60.5706ZM120.995 84.4956H87.8851L88.6757 93.4538H120.198L117.833 119.929L100.129 125.278L99.9576 125.223L82.4607 119.923L81.5051 109.136H90.0782L90.4495 113.322L100.233 115.371L109.837 113.322L110.861 101.993H80.8657L78.5351 75.9363H121.758L120.995 84.4956Z" fill="#E7E5E5"/>
</svg>
