<svg width="200" height="200" viewBox="0 0 200 200" fill="none" xmlns="http://www.w3.org/2000/svg">
<path d="M136.672 58H63.3359C60.3906 58 58 60.3906 58 63.3359V136.664C58 139.609 60.3906 142 63.3359 142H136.664C139.609 142 142 139.609 142 136.672V63.3359C142 60.3906 139.609 58 136.672 58ZM104 122.367C104 130.359 99.3125 134 92.4688 134C86.2812 134 81.8203 129.852 80 126L86.2891 122.195C87.5 124.344 89.3438 126 92 126C94.5391 126 96 125.008 96 121.148V96H104V122.367ZM121.352 134C114.266 134 110.242 130.43 108 126L114 122C115.633 124.672 117.414 127.227 121.18 127.227C124.344 127.227 126 125.648 126 123.461C126 120.852 124.281 119.922 120.805 118.398L118.898 117.578C113.391 115.234 109.727 112.297 109.727 106.078C109.727 100.359 114.094 96 120.906 96C125.758 96 129.242 97.6875 131.758 102.109L125.82 105.93C124.508 103.578 123.102 102.656 120.906 102.656C118.672 102.656 117.258 104.078 117.258 105.93C117.258 108.219 118.672 109.141 121.945 110.562L123.852 111.383C130.344 114.156 134 116.992 134 123.367C134 130.234 128.602 134 121.352 134Z" fill="#E7E5E5"/>
</svg>
