<svg width="209" height="209" viewBox="0 0 209 209" fill="none" xmlns="http://www.w3.org/2000/svg">
<path fill-rule="evenodd" clip-rule="evenodd" d="M37 74H67.0075V164H37V74Z" fill="#E7E5E5"/>
<path fill-rule="evenodd" clip-rule="evenodd" d="M68.01 48.9824C68.0144 51.9521 67.1376 54.8562 65.4906 57.3273C63.8435 59.7983 61.5003 61.725 58.7576 62.8635C56.0149 64.002 52.996 64.301 50.0832 63.7228C47.1704 63.1445 44.4947 61.715 42.3949 59.6151C40.295 57.5153 38.8655 54.8396 38.2872 51.9268C37.709 49.014 38.008 45.9951 39.1465 43.2524C40.285 40.5097 42.2117 38.1665 44.6827 36.5194C47.1538 34.8724 50.0579 33.9956 53.0276 34C57.0011 34 60.812 35.5785 63.6217 38.3883C66.4315 41.198 68.01 45.0089 68.01 48.9824Z" fill="#E7E5E5"/>
<path fill-rule="evenodd" clip-rule="evenodd" d="M79 74H106.682V88.1796H107.043C110.904 81.2705 120.32 74 134.386 74C163.581 74 169 92.1761 169 115.816V164H140.167V121.303C140.167 111.12 139.963 98.0015 125.106 98.0015C110.249 98.0015 107.788 109.088 107.788 120.581V164H79V74Z" fill="#E7E5E5"/>
</svg>
