<svg width="150" height="150" viewBox="0 0 150 150" fill="none" xmlns="http://www.w3.org/2000/svg">
<path d="M0.00625 109.503H6.00625V87.3625L14.3406 106.291C15.3688 108.65 16.775 109.484 19.5344 109.484C22.2937 109.484 23.6437 108.65 24.6719 106.291L33.0063 87.8469V109.503H39.0063V86.8219C39.0063 84.6438 38.1406 83.5875 36.3531 83.0438C32.0813 81.7 29.2125 82.8594 27.9156 85.7688L19.3687 105.019L11.0906 85.7688C9.84688 82.8625 6.92813 81.7 2.65312 83.0438C0.865625 83.5875 0 84.6407 0 86.8188V109.5L0.00625 109.503ZM42.0031 91.5032H48.0031V104.175C47.9563 104.8 48.2031 106.459 51.0969 106.503C52.5719 106.528 59.9125 106.503 60.0031 106.503V91.5032H66.0031C66.0281 91.5032 66.0031 110.153 66.0031 110.231C66.0344 114.831 60.2906 115.425 57.65 115.503H42.0063V112.503C42.0375 112.503 56.9656 112.506 57.0094 112.503C60.4094 112.144 60.0062 110.272 60.0062 109.703V109.503H50.5938C45.375 109.456 42.0469 107.156 42.0094 104.534C42.0031 104.291 42.1219 91.6157 42.0031 91.5032Z" fill="#E7E5E5"/>
<path d="M69.0031 109.503H84.025C85.9937 109.503 87.9062 109.091 89.425 108.378C91.9562 107.216 93 105.644 93 103.578V99.3031C93 94.6906 87.2812 94.5031 84 94.5031H78C75.6406 94.5031 75.2812 93.0781 75 91.5031V88.5031C75.2812 87.3031 75.8062 85.6906 77.8844 85.5031C80.3 85.5031 92.9969 85.5031 92.9969 85.5031V82.5031H78.7281C76.3687 82.5031 68.9969 82.7844 68.9969 88.5031V92.2125C68.9969 94.8375 71.3031 96.975 76.3094 97.5C76.8719 97.5375 77.4344 97.575 77.9937 97.575C77.9937 97.575 83.825 97.4625 83.9937 97.5C87.3687 97.5 86.9937 100.125 86.9937 100.5V103.5C86.9937 103.912 86.9 106.5 83.9594 106.5C83.7344 106.5 68.9937 106.5 68.9937 106.5V109.503H69.0031ZM126 103.375C126 106.997 128.047 109.028 133.475 109.434C133.981 109.469 134.491 109.5 135 109.5H150V106.5H136.141C133.044 106.5 132 105.2 132 103.341V82.5H126V103.375ZM95.95 103.503V88.5031C95.95 85.3156 97.5125 83.1156 101.937 82.5031H104.037H114.809H116.45C120.875 83.1156 122.95 85.3125 122.95 88.5031V103.447C122.95 106.031 122.278 107.419 120.088 108.319L124.738 112.5H117.988L114.644 109.5H110.716L104.041 109.537C103.075 109.537 102.056 109.403 100.937 109.097C97.5812 108.181 95.95 106.419 95.95 103.503ZM101.95 103.503C102.256 104.962 103.428 106.503 105.512 106.503H111.337L108 103.503H114.797L116.419 105.009C116.419 105.009 117 104.534 117 103.503C117 102.472 116.95 88.5031 116.95 88.5031C116.644 87.1469 115.269 85.5031 113.238 85.5031H105.516C103.175 85.5031 101.953 87.2156 101.953 88.8094L101.95 103.503Z" fill="#E7E5E5"/>
<path d="M144.372 79.3406C141.15 79.2531 138.691 79.5531 136.587 80.4375C135.991 80.6906 135.037 80.6969 134.937 81.4469C135.266 81.7906 135.316 82.3063 135.578 82.7281C136.078 83.5406 136.928 84.6313 137.684 85.2C138.512 85.825 139.366 86.4938 140.25 87.0344C141.825 87.9938 143.584 88.5438 145.103 89.5063C145.997 90.0719 146.884 90.7906 147.759 91.4281C148.191 91.7469 148.478 92.2375 149.041 92.4375C149.041 92.4063 149.041 92.3781 149.041 92.3469C148.747 91.9719 148.669 91.4563 148.4 91.0625C148.003 90.6656 147.606 90.2688 147.209 89.8719C146.047 88.3281 144.566 86.9688 142.997 85.8438C141.744 84.9438 138.941 83.7281 138.416 82.2719C138.384 82.2406 138.356 82.2125 138.322 82.1781C139.209 82.0781 140.25 81.7563 141.069 81.5375C142.447 81.1688 143.675 81.2656 145.097 80.8969C145.737 80.7125 146.378 80.5313 147.019 80.3469C147.019 80.225 147.019 80.1031 147.019 79.9813C146.3 79.2438 145.784 78.2688 145.003 77.6C142.95 75.8531 140.712 74.1094 138.409 72.6531C137.131 71.8469 135.55 71.3219 134.197 70.6375C133.741 70.4063 132.941 70.2875 132.641 69.9063C131.928 69 131.544 67.8469 130.994 66.7938C129.844 64.5813 128.712 62.1625 127.697 59.8344C127 58.2469 126.547 56.6781 125.681 55.2531C121.522 48.4156 117.044 44.2875 110.112 40.2313C108.637 39.3688 106.859 39.0281 104.981 38.5813C103.972 38.5219 102.966 38.4594 101.956 38.3969C101.341 38.1375 100.703 37.3875 100.122 37.0219C97.825 35.5688 91.9312 32.4125 90.2312 36.5625C89.1562 39.1813 91.8375 41.7375 92.7969 43.0656C93.4687 43.9969 94.3312 45.0406 94.8125 46.0906C95.1281 46.7781 95.1844 47.4688 95.4531 48.1969C96.1187 49.9906 97.1719 52.0344 98.0344 53.6938C98.4687 54.5344 98.95 55.4156 99.5 56.1656C99.8375 56.625 100.416 56.8281 100.509 57.5406C99.9437 58.3313 99.9125 59.5594 99.5937 60.5656C98.1625 65.0813 98.7031 70.6906 100.784 74.0281C101.422 75.0531 102.928 77.2531 104.997 76.4094C106.806 75.6719 106.403 73.3875 106.919 71.3719C107.034 70.9156 106.962 70.5813 107.194 70.275C107.194 70.3063 107.194 70.3344 107.194 70.3688C107.744 71.4656 108.291 72.5688 108.844 73.6656C110.066 75.6313 112.231 77.6844 114.062 79.0719C115.012 79.7906 115.762 81.0344 116.994 81.4531C116.994 81.4219 116.994 81.3938 116.994 81.3594C116.962 81.3594 116.934 81.3594 116.9 81.3594C116.662 80.9875 116.287 80.8344 115.984 80.5344C115.269 79.8313 114.469 78.9594 113.878 78.1531C112.209 75.8875 110.734 73.4063 109.391 70.825C108.75 69.5906 108.191 68.2344 107.65 66.9781C107.441 66.4938 107.444 65.7625 107.009 65.5125C106.416 66.4313 105.547 67.175 105.087 68.2594C104.356 69.9938 104.259 72.1125 103.991 74.3031C103.828 74.3594 103.9 74.3219 103.806 74.3938C102.531 74.0844 102.081 72.775 101.606 71.6469C100.406 68.7969 100.184 64.2094 101.241 60.9313C101.512 60.0813 102.747 57.4094 102.25 56.625C102.012 55.8406 101.225 55.3875 100.787 54.7906C100.241 54.0531 99.7 53.0781 99.3219 52.225C98.3406 50.0031 97.4094 47.4188 96.375 45.1719C95.8812 44.0969 95.0469 43.0125 94.3594 42.0594C93.6 41.0031 92.7469 40.225 92.1594 38.9469C91.95 38.4938 91.6656 37.7656 91.975 37.2969C92.075 36.9813 92.2125 36.85 92.525 36.7469C93.0562 36.3344 94.5344 36.8813 95.0906 37.1125C96.5594 37.7219 97.7844 38.3031 99.0281 39.1281C99.625 39.525 100.228 40.2906 100.95 40.5031C101.225 40.5031 101.5 40.5031 101.775 40.5031C103.066 40.8 104.509 40.5969 105.712 40.9625C107.844 41.6094 109.75 42.6156 111.481 43.7094C116.762 47.0438 121.078 51.7875 124.031 57.45C124.506 58.3625 124.712 59.2313 125.128 60.1969C125.972 62.1469 127.037 64.1531 127.875 66.0594C128.712 67.9625 129.531 69.8813 130.716 71.4656C131.341 72.2969 133.747 72.7438 134.837 73.2063C135.603 73.5313 136.859 73.8656 137.584 74.3031C138.972 75.1406 140.316 76.1375 141.612 77.05C142.275 77.5094 144.272 78.5125 144.372 79.3406Z" fill="#E7E5E5"/>
<path d="M103.431 44.4469C102.759 44.4344 102.284 44.5188 101.781 44.6313C101.781 44.6625 101.781 44.6907 101.781 44.725C101.812 44.725 101.841 44.725 101.875 44.725C102.197 45.3813 102.759 45.8094 103.156 46.375C103.462 47.0157 103.766 47.6563 104.072 48.2969C104.103 48.2657 104.131 48.2375 104.163 48.2063C104.728 47.8063 104.991 47.1688 104.988 46.1907C104.759 45.95 104.725 45.65 104.528 45.3657C104.266 44.9813 103.759 44.7657 103.431 44.4469Z" fill="#E7E5E5"/>
</svg>
