<svg width="200" height="200" viewBox="0 0 200 200" fill="none" xmlns="http://www.w3.org/2000/svg">
<path d="M99.6 60C84.288 60 81.12 67.92 81.12 72.496V81.12H98.72V82.88H72.496C66.688 82.88 60 87.456 60 100.48C60 113.504 66.688 118.08 72.496 118.08H82.88V107.52C82.88 103.648 86.048 100.48 89.92 100.48H111.04C114.032 100.48 116.32 98.192 116.32 95.2V72.496C116.32 66.336 110.512 60 99.6 60ZM91.68 75.84C89.744 75.84 88.16 74.256 88.16 72.32C88.16 70.384 89.744 68.8 91.68 68.8C93.616 68.8 95.2 70.384 95.2 72.32C95.2 74.256 93.616 75.84 91.68 75.84Z" fill="#E7E5E5"/>
<path d="M101.36 140.96C116.672 140.96 119.84 133.04 119.84 128.464V119.84H102.24V118.08H128.464C134.272 118.08 140.96 113.504 140.96 100.48C140.96 87.456 134.272 82.88 128.464 82.88H118.08V95.2C118.08 99.072 114.912 102.24 111.04 102.24H89.92C86.928 102.24 84.64 104.528 84.64 107.52V128.464C84.64 134.624 90.448 140.96 101.36 140.96ZM109.28 125.12C111.216 125.12 112.8 126.704 112.8 128.64C112.8 130.576 111.216 132.16 109.28 132.16C107.344 132.16 105.76 130.576 105.76 128.64C105.76 126.704 107.344 125.12 109.28 125.12Z" fill="#E7E5E5"/>
</svg>
